<svg xmlns="http://www.w3.org/2000/svg">
    <symbol viewBox="0 0 24 22" id="like">
        <path d="M12 8.22892C12.234 7.10892 13.547 1.99992 17.382 1.99992C19.602 1.99992 22 3.55092 22 7.00292C22 10.9099 18.373 15.4729 12 19.6319C5.627 15.4729 2 10.9099 2 7.00292C2 3.51892 4.369 1.99792 6.577 1.99792C10.5 1.99792 11.722 7.12392 12 8.22892ZM0 7.00292C0 11.0709 3.06 16.4839 12 21.9999C20.94 16.4839 24 11.0709 24 7.00292C24 -0.959077 14.352 -2.02508 12 3.26592C9.662 -1.99608 0 -1.00408 0 7.00292Z" />
    </symbol>
    <symbol viewBox="0 0 30 23" id="cart">
        <path d="M30 0L29.0713 2.5H26.66L22.3175 17.5H5.76875L0 3.75H21.015L20.31 6.25H3.76L7.43125 15H20.4662L24.7563 0H30ZM10.625 18.75C9.59 18.75 8.75 19.59 8.75 20.625C8.75 21.6612 9.59 22.5 10.625 22.5C11.66 22.5 12.5 21.6612 12.5 20.625C12.5 19.59 11.66 18.75 10.625 18.75ZM19.25 10L16.875 18.75C15.84 18.75 15 19.5888 15 20.625C15 21.6612 15.84 22.5 16.875 22.5C17.91 22.5 18.75 21.6612 18.75 20.625C18.75 19.59 17.91 18.75 16.875 18.75L19.25 10Z" />
    </symbol>
</svg>
